<?xml version="1.0" encoding="iso-8859-1"?>
<!-- Generator: Adobe Illustrator 19.0.0, SVG Export Plug-In . SVG Version: 6.00 Build 0)  -->
<svg version="1.1" id="Layer_1" xmlns="http://www.w3.org/2000/svg" xmlns:xlink="http://www.w3.org/1999/xlink" x="0px" y="0px"
	 viewBox="0 0 496 496" style="enable-background:new 0 0 496 496;" xml:space="preserve">
<g>
	<g>
		<g>
			<path d="M376,240c0-70.576-57.424-128-128-128s-128,57.424-128,128c0,56.6,36.968,104.664,88,121.512V384h-16v16h16v56
				c0,22.056,17.944,40,40,40c22.056,0,40-17.944,40-40v-56h16v-16h-16v-22.488C339.032,344.664,376,296.6,376,240z M272,456
				c0,13.232-10.768,24-24,24s-24-10.768-24-24v-56h48V456z M272,384h-48v-18.336c7.784,1.488,15.792,2.336,24,2.336
				s16.216-0.848,24-2.336V384z M248,352c-61.76,0-112-50.24-112-112s50.24-112,112-112s112,50.24,112,112S309.76,352,248,352z"/>
			<path d="M248,144c-52.936,0-96,43.064-96,96c0,52.936,43.064,96,96,96c52.936,0,96-43.064,96-96C344,187.064,300.936,144,248,144
				z M248,320c-44.112,0-80-35.888-80-80s35.888-80,80-80s80,35.888,80,80S292.112,320,248,320z"/>
			<path d="M248,64c17.648,0,32-14.352,32-32S265.648,0,248,0s-32,14.352-32,32S230.352,64,248,64z M248,16c8.824,0,16,7.176,16,16
				s-7.176,16-16,16c-8.824,0-16-7.176-16-16S239.176,16,248,16z"/>
			<rect x="240" y="80" width="16" height="16"/>
			<path d="M100.92,124.92c8.544,0,16.584-3.328,22.624-9.376c6.048-6.04,9.376-14.08,9.376-22.624s-3.328-16.584-9.376-22.624
				c-12.088-12.096-33.168-12.096-45.248,0c-6.048,6.04-9.376,14.08-9.376,22.624s3.328,16.584,9.376,22.624
				C84.336,121.592,92.376,124.92,100.92,124.92z M89.608,81.608c3.024-3.024,7.04-4.688,11.312-4.688
				c4.272,0,8.288,1.664,11.312,4.688c3.024,3.024,4.688,7.04,4.688,11.312c0,4.272-1.664,8.288-4.688,11.312
				c-6.048,6.048-16.576,6.048-22.624,0c-3.024-3.024-4.688-7.04-4.688-11.312C84.92,88.648,86.584,84.632,89.608,81.608z"/>
			<rect x="132.516" y="124.519" transform="matrix(-0.7071 0.7071 -0.7071 -0.7071 333.5813 126.864)" width="16" height="16"/>
			<path d="M40,208c-17.648,0-32,14.352-32,32s14.352,32,32,32s32-14.352,32-32S57.648,208,40,208z M40,256c-8.824,0-16-7.176-16-16
				c0-8.824,7.176-16,16-16s16,7.176,16,16C56,248.824,48.824,256,40,256z"/>
			<rect x="88" y="232" width="16" height="16"/>
			<path d="M78.296,364.456c-6.048,6.04-9.376,14.08-9.376,22.624s3.328,16.584,9.376,22.624c6.04,6.048,14.08,9.376,22.624,9.376
				s16.584-3.328,22.624-9.376c6.048-6.04,9.376-14.08,9.376-22.624s-3.328-16.584-9.376-22.624
				C111.464,352.36,90.384,352.36,78.296,364.456z M112.232,398.392c-6.048,6.048-16.576,6.048-22.624,0
				c-3.024-3.024-4.688-7.04-4.688-11.312c0-4.272,1.664-8.288,4.688-11.312c3.024-3.024,7.04-4.688,11.312-4.688
				c4.272,0,8.288,1.664,11.312,4.688s4.688,7.04,4.688,11.312C116.92,391.352,115.256,395.368,112.232,398.392z"/>
			<rect x="132.543" y="339.49" transform="matrix(-0.7071 -0.7071 0.7071 -0.7071 -5.791 692.5807)" width="16" height="16"/>
			<path d="M372.456,364.456c-6.048,6.04-9.376,14.08-9.376,22.624s3.328,16.584,9.376,22.624c6.04,6.048,14.08,9.376,22.624,9.376
				s16.584-3.328,22.624-9.376c6.048-6.04,9.376-14.08,9.376-22.624s-3.328-16.584-9.376-22.624
				C405.616,352.36,384.536,352.36,372.456,364.456z M406.392,398.392c-6.048,6.048-16.576,6.048-22.624,0
				c-3.024-3.024-4.688-7.04-4.688-11.312c0-4.272,1.664-8.288,4.688-11.312c3.024-3.024,7.04-4.688,11.312-4.688
				c4.272,0,8.288,1.664,11.312,4.688c3.024,3.024,4.688,7.04,4.688,11.312C411.08,391.352,409.416,395.368,406.392,398.392z"/>
			<rect x="347.553" y="339.463" transform="matrix(0.7071 -0.7071 0.7071 0.7071 -141.5545 353.1837)" width="16" height="16"/>
			<path d="M456,208c-17.648,0-32,14.352-32,32s14.352,32,32,32s32-14.352,32-32S473.648,208,456,208z M456,256
				c-8.824,0-16-7.176-16-16c0-8.824,7.176-16,16-16c8.824,0,16,7.176,16,16C472,248.824,464.824,256,456,256z"/>
			<rect x="392" y="232" width="16" height="16"/>
			<path d="M395.08,124.92c8.544,0,16.584-3.328,22.624-9.376c6.048-6.04,9.376-14.08,9.376-22.624s-3.328-16.584-9.376-22.624
				c-12.088-12.096-33.168-12.096-45.248,0c-6.048,6.04-9.376,14.08-9.376,22.624s3.328,16.584,9.376,22.624
				C378.496,121.592,386.528,124.92,395.08,124.92z M383.768,81.608c3.024-3.024,7.04-4.688,11.312-4.688
				c4.272,0,8.288,1.664,11.312,4.688c3.024,3.024,4.688,7.04,4.688,11.312c0,4.272-1.664,8.288-4.688,11.312
				c-6.048,6.048-16.576,6.048-22.624,0c-3.024-3.024-4.688-7.04-4.688-11.312C379.08,88.648,380.744,84.632,383.768,81.608z"/>
			<rect x="347.503" y="124.477" transform="matrix(0.7071 0.7071 -0.7071 0.7071 197.7995 -212.5768)" width="16" height="16"/>
			<path d="M295.28,232c-1.232-7.272-4.08-13.992-8.2-19.768l11.832-11.832L287.6,189.088l-11.832,11.832
				c-5.776-4.12-12.496-6.968-19.768-8.2V176h-16v16.72c-7.272,1.232-13.992,4.08-19.768,8.2L208.4,189.088L197.088,200.4
				l11.832,11.832c-4.12,5.776-6.968,12.496-8.2,19.768H184v16h16.72c1.232,7.272,4.08,13.992,8.2,19.768L197.088,279.6
				l11.312,11.312l11.832-11.832c5.776,4.12,12.496,6.968,19.768,8.2V304h16v-16.72c7.272-1.232,13.992-4.08,19.768-8.2
				l11.832,11.832l11.312-11.312l-11.832-11.832c4.12-5.776,6.968-12.496,8.2-19.768H312v-16H295.28z M248,272
				c-17.648,0-32-14.352-32-32s14.352-32,32-32s32,14.352,32,32S265.648,272,248,272z"/>
		</g>
	</g>
</g>
<g>
</g>
<g>
</g>
<g>
</g>
<g>
</g>
<g>
</g>
<g>
</g>
<g>
</g>
<g>
</g>
<g>
</g>
<g>
</g>
<g>
</g>
<g>
</g>
<g>
</g>
<g>
</g>
<g>
</g>
</svg>
