<?xml version="1.0" encoding="iso-8859-1"?>
<!-- Generator: Adobe Illustrator 19.0.0, SVG Export Plug-In . SVG Version: 6.00 Build 0)  -->
<svg version="1.1" id="Layer_1" xmlns="http://www.w3.org/2000/svg" xmlns:xlink="http://www.w3.org/1999/xlink" x="0px" y="0px"
	 viewBox="0 0 512 512" style="enable-background:new 0 0 512 512;" xml:space="preserve">
<g>
	<g>
		<g>
			<path d="M315.733,307.2H25.6C11.486,307.2,0,318.686,0,332.8v153.6C0,500.514,11.486,512,25.6,512h290.133
				c14.114,0,25.6-11.486,25.6-25.6V332.8C341.333,318.686,329.847,307.2,315.733,307.2z M324.267,486.4
				c0,4.702-3.831,8.533-8.533,8.533H25.6c-4.702,0-8.533-3.831-8.533-8.533V332.8c0-4.702,3.831-8.533,8.533-8.533h290.133
				c4.702,0,8.533,3.831,8.533,8.533V486.4z"/>
			<path d="M213.333,204.8H281.6c4.71,0,8.533-3.823,8.533-8.533s-3.823-8.533-8.533-8.533h-68.267c-4.71,0-8.533,3.823-8.533,8.533
				S208.623,204.8,213.333,204.8z"/>
			<path d="M162.133,409.6H230.4c4.71,0,8.533-3.823,8.533-8.533s-3.823-8.533-8.533-8.533h-68.267c-4.71,0-8.533,3.823-8.533,8.533
				S157.423,409.6,162.133,409.6z"/>
			<path d="M59.733,290.133c14.114,0,25.6-11.486,25.6-25.6V42.667c0-1.289-0.333-2.483-0.845-3.576
				c-0.034-0.077-0.017-0.162-0.06-0.239L67.362,4.719c-2.884-5.786-12.373-5.786-15.266,0L35.029,38.852
				c-0.034,0.077-0.017,0.162-0.051,0.239c-0.512,1.092-0.845,2.287-0.845,3.576v221.867
				C34.133,278.647,45.619,290.133,59.733,290.133z M59.733,27.614l3.26,6.519h-6.519L59.733,27.614z M51.2,51.2h17.067v187.733
				H51.2V51.2z M51.2,256h17.067v8.533c0,4.702-3.831,8.533-8.533,8.533s-8.533-3.831-8.533-8.533V256z"/>
			<path d="M281.6,443.733H162.133c-4.71,0-8.533,3.823-8.533,8.533c0,4.71,3.823,8.533,8.533,8.533H281.6
				c4.71,0,8.533-3.823,8.533-8.533C290.133,447.556,286.31,443.733,281.6,443.733z"/>
			<path d="M162.133,375.467h51.2c4.71,0,8.533-3.823,8.533-8.533s-3.823-8.533-8.533-8.533h-51.2c-4.71,0-8.533,3.823-8.533,8.533
				S157.423,375.467,162.133,375.467z"/>
			<path d="M85.333,358.4c-18.825,0-34.133,15.309-34.133,34.133c0,18.825,15.309,34.133,34.133,34.133
				c18.825,0,34.133-15.309,34.133-34.133C119.467,373.709,104.158,358.4,85.333,358.4z M85.333,409.6
				c-9.412,0-17.067-7.654-17.067-17.067c0-9.412,7.654-17.067,17.067-17.067c9.412,0,17.067,7.654,17.067,17.067
				C102.4,401.946,94.746,409.6,85.333,409.6z"/>
			<path d="M349.867,119.467H435.2c4.71,0,8.533-3.823,8.533-8.533s-3.823-8.533-8.533-8.533h-85.333
				c-4.71,0-8.533,3.823-8.533,8.533S345.156,119.467,349.867,119.467z"/>
			<path d="M460.8,409.6c-9.412,0-17.067,7.654-17.067,17.067s7.654,17.067,17.067,17.067c9.412,0,17.067-7.654,17.067-17.067
				S470.212,409.6,460.8,409.6z"/>
			<path d="M384,341.333h-17.067c-4.71,0-8.533,3.823-8.533,8.533s3.823,8.533,8.533,8.533H384c4.71,0,8.533-3.823,8.533-8.533
				S388.71,341.333,384,341.333z"/>
			<path d="M384,375.467h-17.067c-4.71,0-8.533,3.823-8.533,8.533s3.823,8.533,8.533,8.533H384c4.71,0,8.533-3.823,8.533-8.533
				S388.71,375.467,384,375.467z"/>
			<path d="M486.4,341.333h-51.2c-14.114,0-25.6,11.486-25.6,25.6V486.4c0,14.114,11.486,25.6,25.6,25.6h51.2
				c14.114,0,25.6-11.486,25.6-25.6V366.933C512,352.819,500.514,341.333,486.4,341.333z M494.933,486.4
				c0,4.702-3.831,8.533-8.533,8.533h-51.2c-4.702,0-8.533-3.831-8.533-8.533V366.933c0-4.702,3.831-8.533,8.533-8.533h51.2
				c4.702,0,8.533,3.831,8.533,8.533V486.4z"/>
			<path d="M486.4,0H162.133c-14.114,0-25.6,11.486-25.6,25.6v256c0,4.71,3.823,8.533,8.533,8.533c4.71,0,8.533-3.823,8.533-8.533
				v-256c0-4.702,3.831-8.533,8.533-8.533H486.4c4.702,0,8.533,3.831,8.533,8.533v290.133c0,4.71,3.823,8.533,8.533,8.533
				s8.533-3.823,8.533-8.533V25.6C512,11.486,500.514,0,486.4,0z"/>
			<path d="M384,494.933h-17.067c-4.71,0-8.533,3.823-8.533,8.533s3.823,8.533,8.533,8.533H384c4.71,0,8.533-3.823,8.533-8.533
				S388.71,494.933,384,494.933z"/>
			<path d="M213.333,256H332.8c4.71,0,8.533-3.823,8.533-8.533s-3.823-8.533-8.533-8.533H213.333c-4.71,0-8.533,3.823-8.533,8.533
				S208.623,256,213.333,256z"/>
			<path d="M213.333,290.133H281.6c4.71,0,8.533-3.823,8.533-8.533s-3.823-8.533-8.533-8.533h-68.267
				c-4.71,0-8.533,3.823-8.533,8.533S208.623,290.133,213.333,290.133z"/>
			<path d="M435.2,238.933h-68.267c-4.71,0-8.533,3.823-8.533,8.533s3.823,8.533,8.533,8.533H435.2c4.71,0,8.533-3.823,8.533-8.533
				S439.91,238.933,435.2,238.933z"/>
			<path d="M238.933,136.533c18.825,0,34.133-15.309,34.133-34.133c0-18.825-15.309-34.133-34.133-34.133S204.8,83.575,204.8,102.4
				C204.8,121.225,220.109,136.533,238.933,136.533z M238.933,85.333c9.412,0,17.067,7.654,17.067,17.067
				c0,9.412-7.654,17.067-17.067,17.067s-17.067-7.654-17.067-17.067C221.867,92.988,229.521,85.333,238.933,85.333z"/>
			<path d="M349.867,85.333h68.267c4.71,0,8.533-3.823,8.533-8.533s-3.823-8.533-8.533-8.533h-68.267
				c-4.71,0-8.533,3.823-8.533,8.533S345.156,85.333,349.867,85.333z"/>
			<path d="M435.2,307.2h-68.267c-4.71,0-8.533,3.823-8.533,8.533s3.823,8.533,8.533,8.533H435.2c4.71,0,8.533-3.823,8.533-8.533
				S439.91,307.2,435.2,307.2z"/>
			<path d="M307.2,281.6c0,4.71,3.823,8.533,8.533,8.533h102.4c4.71,0,8.533-3.823,8.533-8.533s-3.823-8.533-8.533-8.533h-102.4
				C311.023,273.067,307.2,276.89,307.2,281.6z"/>
		</g>
	</g>
</g>
<g>
</g>
<g>
</g>
<g>
</g>
<g>
</g>
<g>
</g>
<g>
</g>
<g>
</g>
<g>
</g>
<g>
</g>
<g>
</g>
<g>
</g>
<g>
</g>
<g>
</g>
<g>
</g>
<g>
</g>
</svg>
